<?xml version="1.0" encoding="UTF-8"?>
<!DOCTYPE svg PUBLIC "-//W3C//DTD SVG 1.1//EN" "http://www.w3.org/Graphics/SVG/1.1/DTD/svg11.dtd">
<svg xmlns="http://www.w3.org/2000/svg" version="1.1" width="512px" height="512px" style="shape-rendering:geometricPrecision; text-rendering:geometricPrecision; image-rendering:optimizeQuality; fill-rule:evenodd; clip-rule:evenodd" xmlns:xlink="http://www.w3.org/1999/xlink">
<g><path style="opacity:0.96" fill="currentcolor" d="M 16.5,5.5 C 40.8356,5.33336 65.1689,5.50003 89.5,6C 95.1088,9.27694 96.9422,14.1103 95,20.5C 93.413,23.7559 90.913,25.9226 87.5,27C 69.1697,27.4999 50.8364,27.6666 32.5,27.5C 42.8753,99.7934 65.7087,167.793 101,231.5C 109.758,245.922 120.924,258.089 134.5,268C 149.518,275.212 163.518,273.545 176.5,263C 193.256,247.666 206.756,229.833 217,209.5C 245.541,152.335 263.375,92.0017 270.5,28.5C 256.444,27.9486 242.444,27.1153 228.5,26C 223.355,21.4022 222.188,15.9022 225,9.5C 226.214,7.95118 227.714,6.78451 229.5,6C 248.167,5.33333 266.833,5.33333 285.5,6C 289,6.83333 291.167,9 292,12.5C 288.18,85.6344 269.846,154.968 237,220.5C 226.879,240.287 214.046,258.12 198.5,274C 184.835,287.164 168.502,294.331 149.5,295.5C 149.333,316.503 149.5,337.503 150,358.5C 160.196,423.362 197.029,464.196 260.5,481C 316.515,489.888 362.682,472.722 399,429.5C 413.497,409.494 422.163,387.161 425,362.5C 425.833,306.83 425.667,251.164 424.5,195.5C 393.763,186.584 377.097,166.084 374.5,134C 377.223,99.2818 395.557,78.2818 429.5,71C 461.013,68.8378 483.513,82.0045 497,110.5C 506.386,139.659 499.553,164.159 476.5,184C 467.941,190.612 458.274,194.446 447.5,195.5C 447.667,252.168 447.5,308.834 447,365.5C 438.785,425.366 407.285,467.866 352.5,493C 283.358,518.507 222.525,505.674 170,454.5C 146.266,427.685 132.266,396.351 128,360.5C 127.833,336.493 127.333,312.493 126.5,288.5C 119.302,284.401 112.636,279.568 106.5,274C 92.9126,259.328 81.4126,243.161 72,225.5C 39.1611,159.984 18.3277,90.8174 9.5,18C 9.65244,12.5209 11.9858,8.35419 16.5,5.5 Z M 432.5,92.5 C 460.272,92.2711 475.939,105.938 479.5,133.5C 477.642,155.522 465.975,169.022 444.5,174C 416.156,175.158 400.156,161.658 396.5,133.5C 398.677,111.001 410.677,97.3345 432.5,92.5 Z"/></g>
</svg>
